<svg id="visual" viewBox="0 0 900 600" width="900" height="600" xmlns="http://www.w3.org/2000/svg" xmlns:xlink="http://www.w3.org/1999/xlink" version="1.1"><rect x="0" y="0" width="900" height="600" fill="#27445a"></rect><defs><linearGradient id="grad1_0" x1="33.3%" y1="100%" x2="100%" y2="0%"><stop offset="20%" stop-color="#3cfaec" stop-opacity="1"></stop><stop offset="80%" stop-color="#3cfaec" stop-opacity="1"></stop></linearGradient></defs><defs><linearGradient id="grad1_1" x1="33.3%" y1="100%" x2="100%" y2="0%"><stop offset="20%" stop-color="#3cfaec" stop-opacity="1"></stop><stop offset="80%" stop-color="#0bd3da" stop-opacity="1"></stop></linearGradient></defs><defs><linearGradient id="grad1_2" x1="33.3%" y1="100%" x2="100%" y2="0%"><stop offset="20%" stop-color="#05adc1" stop-opacity="1"></stop><stop offset="80%" stop-color="#0bd3da" stop-opacity="1"></stop></linearGradient></defs><defs><linearGradient id="grad1_3" x1="33.3%" y1="100%" x2="100%" y2="0%"><stop offset="20%" stop-color="#05adc1" stop-opacity="1"></stop><stop offset="80%" stop-color="#1e88a3" stop-opacity="1"></stop></linearGradient></defs><defs><linearGradient id="grad1_4" x1="33.3%" y1="100%" x2="100%" y2="0%"><stop offset="20%" stop-color="#286580" stop-opacity="1"></stop><stop offset="80%" stop-color="#1e88a3" stop-opacity="1"></stop></linearGradient></defs><defs><linearGradient id="grad1_5" x1="33.3%" y1="100%" x2="100%" y2="0%"><stop offset="20%" stop-color="#286580" stop-opacity="1"></stop><stop offset="80%" stop-color="#27445a" stop-opacity="1"></stop></linearGradient></defs><defs><linearGradient id="grad2_0" x1="0%" y1="100%" x2="66.7%" y2="0%"><stop offset="20%" stop-color="#3cfaec" stop-opacity="1"></stop><stop offset="80%" stop-color="#3cfaec" stop-opacity="1"></stop></linearGradient></defs><defs><linearGradient id="grad2_1" x1="0%" y1="100%" x2="66.7%" y2="0%"><stop offset="20%" stop-color="#0bd3da" stop-opacity="1"></stop><stop offset="80%" stop-color="#3cfaec" stop-opacity="1"></stop></linearGradient></defs><defs><linearGradient id="grad2_2" x1="0%" y1="100%" x2="66.7%" y2="0%"><stop offset="20%" stop-color="#0bd3da" stop-opacity="1"></stop><stop offset="80%" stop-color="#05adc1" stop-opacity="1"></stop></linearGradient></defs><defs><linearGradient id="grad2_3" x1="0%" y1="100%" x2="66.7%" y2="0%"><stop offset="20%" stop-color="#1e88a3" stop-opacity="1"></stop><stop offset="80%" stop-color="#05adc1" stop-opacity="1"></stop></linearGradient></defs><defs><linearGradient id="grad2_4" x1="0%" y1="100%" x2="66.7%" y2="0%"><stop offset="20%" stop-color="#1e88a3" stop-opacity="1"></stop><stop offset="80%" stop-color="#286580" stop-opacity="1"></stop></linearGradient></defs><defs><linearGradient id="grad2_5" x1="0%" y1="100%" x2="66.7%" y2="0%"><stop offset="20%" stop-color="#27445a" stop-opacity="1"></stop><stop offset="80%" stop-color="#286580" stop-opacity="1"></stop></linearGradient></defs><g transform="translate(900, 600)"><path d="M-243.4 0C-240.5 -25.4 -237.7 -50.8 -230.2 -74.8C-222.6 -98.7 -210.5 -121.2 -195.8 -142.2C-181.1 -163.3 -163.8 -182.8 -143.1 -196.9C-122.3 -211 -98 -219.5 -73.5 -226.4C-49.1 -233.2 -24.6 -238.3 0 -243.4L0 0Z" fill="#29546d"></path><path d="M-202.8 0C-200.4 -21.2 -198.1 -42.4 -191.8 -62.3C-185.5 -82.3 -175.4 -101 -163.2 -118.5C-150.9 -136.1 -136.5 -152.4 -119.2 -164.1C-101.9 -175.8 -81.6 -182.9 -61.3 -188.6C-40.9 -194.3 -20.5 -198.6 0 -202.8L0 0Z" fill="#247692"></path><path d="M-162.2 0C-160.3 -16.9 -158.4 -33.9 -153.4 -49.9C-148.4 -65.8 -140.3 -80.8 -130.5 -94.8C-120.7 -108.8 -109.2 -121.9 -95.4 -131.3C-81.5 -140.6 -65.3 -146.3 -49 -150.9C-32.7 -155.5 -16.4 -158.9 0 -162.2L0 0Z" fill="#139ab3"></path><path d="M-121.7 0C-120.3 -12.7 -118.8 -25.4 -115.1 -37.4C-111.3 -49.4 -105.2 -60.6 -97.9 -71.1C-90.5 -81.6 -81.9 -91.4 -71.5 -98.4C-61.1 -105.5 -49 -109.8 -36.8 -113.2C-24.6 -116.6 -12.3 -119.1 0 -121.7L0 0Z" fill="#00c0cf"></path><path d="M-81.1 0C-80.2 -8.5 -79.2 -16.9 -76.7 -24.9C-74.2 -32.9 -70.2 -40.4 -65.3 -47.4C-60.4 -54.4 -54.6 -60.9 -47.7 -65.6C-40.8 -70.3 -32.7 -73.2 -24.5 -75.5C-16.4 -77.7 -8.2 -79.4 0 -81.1L0 0Z" fill="#24e7e4"></path><path d="M-40.6 0C-40.1 -4.2 -39.6 -8.5 -38.4 -12.5C-37.1 -16.5 -35.1 -20.2 -32.6 -23.7C-30.2 -27.2 -27.3 -30.5 -23.8 -32.8C-20.4 -35.2 -16.3 -36.6 -12.3 -37.7C-8.2 -38.9 -4.1 -39.7 0 -40.6L0 0Z" fill="#3cfaec"></path></g><g transform="translate(0, 0)"><path d="M243.4 0C235.2 23.6 227 47.1 220.6 71.7C214.2 96.2 209.6 121.8 196.9 143.1C184.2 164.3 163.4 181.3 141.7 195C119.9 208.6 97.3 218.8 73.5 226.4C49.8 233.9 24.9 238.6 0 243.4L0 0Z" fill="#29546d"></path><path d="M202.8 0C196 19.6 189.2 39.3 183.9 59.7C178.5 80.2 174.7 101.5 164.1 119.2C153.5 136.9 136.1 151.1 118 162.5C99.9 173.8 81.1 182.4 61.3 188.6C41.5 194.9 20.7 198.8 0 202.8L0 0Z" fill="#247692"></path><path d="M162.2 0C156.8 15.7 151.4 31.4 147.1 47.8C142.8 64.2 139.7 81.2 131.3 95.4C122.8 109.6 108.9 120.9 94.4 130C80 139.1 64.9 145.9 49 150.9C33.2 155.9 16.6 159.1 0 162.2L0 0Z" fill="#139ab3"></path><path d="M121.7 0C117.6 11.8 113.5 23.6 110.3 35.8C107.1 48.1 104.8 60.9 98.4 71.5C92.1 82.2 81.7 90.7 70.8 97.5C60 104.3 48.7 109.4 36.8 113.2C24.9 116.9 12.4 119.3 0 121.7L0 0Z" fill="#00c0cf"></path><path d="M81.1 0C78.4 7.9 75.7 15.7 73.5 23.9C71.4 32.1 69.9 40.6 65.6 47.7C61.4 54.8 54.5 60.4 47.2 65C40 69.5 32.4 72.9 24.5 75.5C16.6 78 8.3 79.5 0 81.1L0 0Z" fill="#24e7e4"></path><path d="M40.6 0C39.2 3.9 37.8 7.9 36.8 11.9C35.7 16 34.9 20.3 32.8 23.8C30.7 27.4 27.2 30.2 23.6 32.5C20 34.8 16.2 36.5 12.3 37.7C8.3 39 4.1 39.8 0 40.6L0 0Z" fill="#3cfaec"></path></g></svg>