<svg id="visual" viewBox="0 0 675 900" width="675" height="900" xmlns="http://www.w3.org/2000/svg" xmlns:xlink="http://www.w3.org/1999/xlink" version="1.1"><rect x="0" y="0" width="675" height="900" fill="#237692"></rect><g transform="translate(632.8272606174737 -76.97270818739696)"><path d="M415.5 -613.9C533.3 -570.8 620 -446.8 698.7 -309C777.4 -171.2 848 -19.5 805.6 99.5C763.1 218.6 607.5 305.1 495.2 422.1C382.9 539 313.9 686.4 200.9 749.4C87.9 812.4 -69 790.9 -194 724.9C-318.9 658.8 -411.9 548.1 -511.3 439.6C-610.7 331.1 -716.6 224.7 -732 106.3C-747.3 -12 -672 -142.3 -587.2 -243.3C-502.4 -344.3 -408 -416.2 -308.5 -467.6C-209.1 -519 -104.5 -550 22.2 -584.5C148.9 -619 297.7 -656.9 415.5 -613.9" fill="#139AB3"></path></g></svg>